HIERARCHY
ROOT Hips
{
  OFFSET 57.8838 95.319 338.509
  CHANNELS 6 Xposition Yposition Zposition Zrotation Xrotation Yrotation
  JOINT LeftUpLeg
  {
    OFFSET 8.64259 1.95398 -2.38835
    CHANNELS 3 Zrotation Xrotation Yrotation
    JOINT LeftLeg
    {
      OFFSET 43.7702 0 0
      CHANNELS 3 Zrotation Xrotation Yrotation
      JOINT LeftFoot
      {
        OFFSET 40.6238 0 0
        CHANNELS 3 Zrotation Xrotation Yrotation
        JOINT LeftToeBase
        {
          OFFSET 12.7242 0 0
          CHANNELS 3 Zrotation Xrotation Yrotation
          End Site
          {
            OFFSET 0 0 0
          }
        }
      }
    }
  }
  JOINT RightUpLeg
  {
    OFFSET -8.2249 1.95398 -2.59336
    CHANNELS 3 Zrotation Xrotation Yrotation
    JOINT RightLeg
    {
      OFFSET 43.5653 0 0
      CHANNELS 3 Zrotation Xrotation Yrotation
      JOINT RightFoot
      {
        OFFSET 40.6238 0 0
        CHANNELS 3 Zrotation Xrotation Yrotation
        JOINT RightToeBase
        {
          OFFSET 12.7242 0 0
          CHANNELS 3 Zrotation Xrotation Yrotation
          End Site
          {
            OFFSET 0 0 0
          }
        }
      }
    }
  }
  JOINT Spine
  {
    OFFSET 0.165834 0.87714 6.61349
    CHANNELS 3 Zrotation Xrotation Yrotation
    JOINT Spine1
    {
      OFFSET 7.38963 1.71661e-005 0
      CHANNELS 3 Zrotation Xrotation Yrotation
      JOINT Spine2
      {
        OFFSET 11.9445 1.14441e-005 0
        CHANNELS 3 Zrotation Xrotation Yrotation
        JOINT Spine3
        {
          OFFSET 14.7254 4.19617e-005 0
          CHANNELS 3 Zrotation Xrotation Yrotation
          JOINT Spine4
          {
            OFFSET 10.9679 0 0
            CHANNELS 3 Zrotation Xrotation Yrotation
            JOINT RightShoulder
            {
              OFFSET 2.46616 -1.6653 3.69651
              CHANNELS 3 Zrotation Xrotation Yrotation
              JOINT RightArm
              {
                OFFSET 13.0012 0 0
                CHANNELS 3 Zrotation Xrotation Yrotation
                JOINT RightForeArm
                {
                  OFFSET 28.7848 1.62311e-005 0
                  CHANNELS 3 Zrotation Xrotation Yrotation
                  JOINT RightHand
                  {
                    OFFSET 26.5688 1.62095e-005 0
                    CHANNELS 3 Zrotation Xrotation Yrotation
                    End Site
                    {
                      OFFSET 0 0 0
                    }
                  }
                }
              }
            }
            JOINT LeftShoulder
            {
              OFFSET 2.38034 -1.29275 -3.7523
              CHANNELS 3 Zrotation Xrotation Yrotation
              JOINT LeftArm
              {
                OFFSET 16.3182 6.07031e-005 0
                CHANNELS 3 Zrotation Xrotation Yrotation
                JOINT LeftForeArm
                {
                  OFFSET 27.0901 0 0
                  CHANNELS 3 Zrotation Xrotation Yrotation
                  JOINT LeftHand
                  {
                    OFFSET 24.5451 1.51738e-005 0
                    CHANNELS 3 Zrotation Xrotation Yrotation
                    End Site
                    {
                      OFFSET 0 0 0
                    }
                  }
                }
              }
            }
            JOINT Neck
            {
              OFFSET 5.0226 -0.0266342 0
              CHANNELS 3 Zrotation Xrotation Yrotation
              JOINT Head
              {
                OFFSET 6.69364 2.86102e-005 0
                CHANNELS 3 Zrotation Xrotation Yrotation
                End Site
                {
                  OFFSET 0 0 0
                }
              }
            }
          }
        }
      }
    }
  }
}
MOTION
Frames:	17
Frame Time:	0.0416667
-314.621 61.5973 349.537 -95.6795 -40.538 -90.2448 179.44 36.4209 90.2358 -110.897 11.1052 -7.31073 70.2014 9.79777 21.5783 25.7855 -10.5104 66.2405 -177.276 60.8341 105.51 -99.7003 -28.861 2.56171 67.0804 -0.387859 -20.0608 26.0385 -40.7025 -86.0985 -1.11355 5.01825 -91.2717 16.8038 -2.84607 -2.08041 5.13455 -2.93484 -1.95311 -17.4023 -2.0895 -2.83941 2.61032 -2.08949 -2.83941 36.0718 -51.9937 -171.239 -0.0185806 24.2504 85.7691 148.255 -12.3978 -65.8041 2.9986 -2.0921 -64.5096 -123.315 -81.8536 48.3513 7.23664 -45.1377 32.8415 -159.338 54.3913 179.949 45.1358 -6.41975 -18.7535 -78.8155 30.2267 11.3697 49.36 55.2338 48.8192 
-314.746 61.6015 349.686 -95.6888 -40.5367 -90.2354 179.326 36.6977 90.3787 -110.886 11.3512 -7.35938 70.0348 9.90971 21.6294 25.5998 -11.057 67.3895 -177.025 60.5747 105.193 -99.7287 -28.8422 2.56535 67.9206 -1.80684 -18.9494 26.8973 -42.899 -83.1095 -1.10836 5.02122 -91.2599 16.8023 -2.82967 -2.05872 5.13299 -2.91752 -1.93216 -17.4041 -2.08036 -2.8138 2.60861 -2.08037 -2.81381 36.1331 -51.9744 -171.185 0.137767 24.3795 85.7054 148.245 -12.4063 -65.8098 2.9919 -2.0909 -64.5662 -123.189 -81.7294 48.4319 7.24036 -45.0042 32.6545 -159.494 53.6239 179.95 45.3889 -6.35636 -18.5167 -78.7939 30.3051 11.3431 49.6846 55.292 48.5141 
-315.129 61.5881 350.149 -95.7183 -40.5295 -90.2077 178.983 37.5427 90.8098 -110.882 12.0585 -7.50138 69.5551 10.2352 21.76 25.1053 -12.7719 70.9784 -176.238 59.8102 104.148 -99.7291 -28.8424 2.57388 70.4848 -5.80282 -15.5574 31.4019 -48.335 -71.5115 -1.09223 5.02738 -91.2223 16.7946 -2.77859 -1.9912 5.12527 -2.86352 -1.86696 -17.4122 -2.05191 -2.73408 2.60046 -2.05191 -2.73408 36.3175 -51.9191 -171.022 0.620726 24.7752 85.5021 148.214 -12.4304 -65.8305 2.97326 -2.08763 -64.7405 -122.818 -81.3468 48.6602 7.26438 -44.5981 32.1006 -159.932 51.4559 179.897 46.094 -6.17985 -17.8672 -78.7202 30.5486 11.2525 50.6819 55.4629 47.5755 
-315.746 61.4928 350.9 -95.7684 -40.5183 -90.1667 178.444 38.8851 91.4868 -110.948 13.0656 -7.7089 68.8698 10.7044 21.8997 24.5672 -15.6083 76.8838 -175.026 58.7087 102.566 -99.4834 -28.8138 2.60259 74.436 -11.0809 -10.2999 42.4888 -51.3117 -48.2097 -1.06592 5.0352 -91.1607 16.7813 -2.69501 -1.8813 5.11191 -2.7752 -1.76083 -17.4262 -2.00519 -2.60417 2.58648 -2.00522 -2.60418 36.6022 -51.8413 -170.765 1.39981 25.4036 85.1577 148.165 -12.4657 -65.8679 2.94499 -2.08311 -65.0232 -122.278 -80.7313 48.9711 7.33484 -43.9568 31.2642 -161.321 48.7184 -179.287 47.0503 -5.94966 -17.0619 -78.5813 30.9451 11.0842 52.2845 55.7119 46.0624 
-316.579 61.2577 351.917 -95.8408 -40.5039 -90.1163 177.715 40.6956 92.3986 -111.154 14.2388 -7.95704 68.0535 11.2459 21.9825 24.3887 -19.4028 85.0603 -173.654 57.4948 100.623 -98.8364 -28.8569 2.62453 79.251 -16.2825 -3.75985 52.6235 -46.043 -22.5677 -1.02924 5.04617 -91.076 16.7623 -2.57931 -1.73068 5.09293 -2.65299 -1.61544 -17.4459 -1.94007 -2.42578 2.56674 -1.94006 -2.42578 36.9668 -51.7566 -170.424 2.4573 26.2383 84.6612 148.103 -12.5084 -65.9228 2.90826 -2.07791 -65.4121 -121.636 -79.8967 49.3007 7.48431 -43.1101 30.2248 -163.422 45.9967 -177.778 48.112 -5.76852 -16.3799 -78.3549 31.4898 10.8161 54.4517 55.9995 44.0061 
-317.609 60.8647 353.169 -95.9379 -40.4872 -90.0609 176.786 42.8299 93.5585 -111.396 15.4862 -8.22493 67.1199 11.7803 21.9597 25.0697 -23.7605 95.4201 -172.452 56.3768 98.7997 -97.7351 -28.814 2.64606 84.1986 -20.421 3.27894 53.855 -36.4983 -6.68888 -0.981926 5.06035 -90.9691 16.7372 -2.43118 -1.54073 5.06778 -2.49663 -1.4322 -17.4718 -1.85586 -2.20015 2.54083 -1.85584 -2.20015 37.3898 -51.6825 -170.01 3.77855 27.2521 83.996 148.032 -12.5534 -65.9966 2.86422 -2.07253 -65.9081 -120.951 -78.8539 49.5956 7.74292 -42.0937 29.0583 -165.686 43.6881 -176.241 49.2114 -5.76468 -16.0816 -78.013 32.1785 10.4191 57.1407 56.2797 41.4373 
-318.811 60.3371 354.618 -96.0626 -40.469 -90.0048 175.617 45.3195 94.9979 -111.697 16.7483 -8.49825 66.0331 12.2219 21.8034 26.9609 -27.9537 107.352 -171.647 55.4796 97.381 -96.2581 -28.6157 2.65225 88.5953 -23.1632 10.0629 50.8837 -28.3133 1.39976 -0.923322 5.07864 -90.8406 16.7053 -2.24991 -1.31281 5.03578 -2.30549 -1.2125 -17.5045 -1.7514 -1.92832 2.50819 -1.75139 -1.92833 37.848 -51.6386 -169.534 5.34954 28.4152 83.1448 147.956 -12.5955 -66.0888 2.81404 -2.06757 -66.515 -120.263 -77.6123 49.8162 8.13646 -40.9505 27.8401 -168.079 42.1639 -174.72 50.3366 -6.04481 -16.3573 -77.521 33.0057 9.8565 60.2951 56.5014 38.3989 
-320.15 59.7132 356.224 -96.2172 -40.4494 -89.9523 174.177 48.0424 96.7412 -111.922 17.9888 -8.76584 64.7518 12.4939 21.5053 29.9449 -31.0541 119.757 -171.298 54.8135 96.4853 -94.508 -28.2029 2.63619 92.0626 -24.6795 16.1493 47.4952 -22.499 5.66975 -0.85288 5.09995 -90.691 16.6658 -2.03439 -1.04835 4.99612 -2.07855 -0.957781 -17.5445 -1.6253 -1.61135 2.46814 -1.62528 -1.61135 38.3179 -51.6457 -169.007 7.15712 29.696 82.0895 147.884 -12.6284 -66.1989 2.75891 -2.06376 -67.2381 -119.598 -76.1801 49.9369 8.67871 -39.7291 26.6341 -170.602 41.5894 -173.223 51.4797 -6.66391 -17.2728 -76.8404 33.9622 9.08569 63.8374 56.6124 34.9527 
-321.593 59.0244 357.953 -96.4042 -40.4281 -89.9079 172.427 50.918 98.8032 -112.005 19.1762 -9.01996 63.2623 12.5396 21.0673 33.3945 -32.3689 131.464 -171.365 54.3299 96.0832 -92.5607 -27.5798 2.59178 94.505 -25.298 21.4069 44.6715 -18.4675 8.11951 -0.769728 5.12575 -90.5211 16.6179 -1.78366 -0.748939 4.948 -1.81489 -0.669703 -17.5927 -1.4761 -1.25044 2.41999 -1.47612 -1.25045 38.7768 -51.7237 -168.442 9.18877 31.0606 80.814 147.823 -12.646 -66.3252 2.70049 -2.06213 -68.0842 -118.971 -74.5658 49.9449 9.36989 -38.4778 25.4906 -173.267 41.9555 -171.743 52.5943 -7.61806 -18.7855 -75.9314 35.0337 8.06125 67.6661 56.5652 31.1842 
-323.106 58.2928 359.771 -96.625 -40.404 -89.8763 170.361 53.7834 101.185 -111.827 20.2949 -9.24611 61.5848 12.3239 20.4953 36.4706 -31.5702 141.521 -171.775 53.9634 96.0952 -90.459 -26.7795 2.51581 95.995 -25.3234 25.8846 42.4797 -15.619 9.6448 -0.673484 5.15579 -90.332 16.5609 -1.49737 -0.416592 4.89079 -1.51425 -0.350287 -17.6494 -1.30293 -0.84741 2.36327 -1.30294 -0.847419 39.2013 -51.891 -167.851 11.4305 32.472 79.3066 147.783 -12.6406 -66.4653 2.64109 -2.06404 -69.0599 -118.387 -72.7811 49.8367 10.198 -37.2414 24.4479 -176.07 43.1358 -170.273 53.5928 -8.85286 -20.7821 -77.5713 36.3429 8.48039 87.1832 51.4351 10.0632 
-324.653 57.5346 361.644 -96.8805 -40.3753 -89.8624 167.977 56.5646 103.874 -111.392 21.3255 -9.42994 59.7712 11.834 19.7983 38.5034 -28.5277 149.456 -172.444 53.6501 96.4282 -88.2222 -25.8498 2.40697 96.6781 -24.9872 29.7056 40.7915 -13.5427 10.6712 -0.564405 5.18986 -90.125 16.4949 -1.17668 -0.0538145 4.82447 -1.17793 -0.00197214 -17.7146 -1.10612 -0.405012 2.29808 -1.10612 -0.405018 39.5656 -52.1634 -167.253 13.8631 33.8881 77.5654 147.78 -12.6036 -66.6162 2.58463 -2.07212 -70.171 -117.848 -70.8459 49.6139 11.1447 -36.0585 23.537 -178.981 44.9253 -168.804 54.3705 -10.2728 -23.1074 -38.6533 33.1596 -16.3443 -64.7079 -13.0486 62.6682 
-326.201 56.7642 363.538 -97.17 -40.3395 -89.8716 165.303 59.172 106.814 -110.705 22.2419 -9.56045 57.8965 11.0794 18.9886 39.1753 -23.17 155.264 -173.296 53.3384 96.9896 -85.8556 -24.8459 2.26587 96.6998 -24.4463 32.9951 39.4819 -11.9884 11.4019 -0.444217 5.22703 -89.902 16.4215 -0.826241 0.33654 4.75076 -0.810624 0.372573 -17.7865 -0.889181 0.072644 2.22618 -0.889186 0.0726365 39.8363 -52.5526 -166.679 16.459 35.2584 75.6053 147.835 -12.5239 -66.7744 2.53781 -2.09108 -71.419 -117.355 -68.7984 49.2882 12.1981 -34.9552 22.7844 178.057 47.083 -167.338 54.8437 -11.7581 -25.5942 -28.5348 32.0927 -24.4942 -88.3091 -0.828369 31.7049 
-327.72 55.9974 365.422 -97.4914 -40.2935 -89.9098 162.414 61.5274 109.916 -109.785 23.0262 -9.62634 56.0427 10.0871 18.0842 38.4618 -15.388 159.238 -174.258 52.9829 97.7042 -83.3501 -23.8106 2.09388 96.1794 -23.8006 35.852 38.4587 -10.8035 11.9402 -0.318103 5.26395 -89.6653 16.3472 -0.457242 0.75198 4.6761 -0.423693 0.771373 -17.8586 -0.662107 0.5798 2.1541 -0.662108 0.579805 39.9551 -53.0687 -166.189 19.1697 36.5145 73.4765 147.984 -12.386 -66.9359 2.51195 -2.12845 -72.7975 -116.911 -66.7178 48.8862 13.3866 -33.9391 22.2255 175.125 49.3732 -165.897 54.9767 -13.1897 -28.0863 -26.5497 32.4545 -27.8654 -88.9628 0.825678 30.3834 
-329.18 55.253 367.262 -97.8401 -40.2339 -89.9837 159.433 63.5811 113.055 -108.675 23.6759 -9.61647 54.2927 8.89768 17.1111 36.5029 -5.0734 161.841 -175.261 52.5505 98.4935 -80.6926 -22.7928 1.89358 95.2117 -23.1117 38.3482 37.6535 -9.88749 12.3457 -0.197484 5.2892 -89.4168 16.2945 -0.0932265 1.19282 4.62298 -0.0406263 1.19575 -17.9083 -0.447396 1.10967 2.10439 -0.447389 1.10967 39.7571 -53.7536 -165.941 21.8673 37.5361 71.3318 148.297 -12.1642 -67.0924 2.52779 -2.19849 -74.2851 -116.548 -64.7948 48.4508 14.8775 -32.9772 21.9423 172.324 51.5618 -164.549 54.7902 -14.4652 -30.4406 -24.6916 32.711 -31.2401 -89.5133 2.45939 29.1196 
-330.548 54.5539 369.025 -98.2091 -40.1571 -90.1013 156.547 65.2914 116.031 -107.409 24.1774 -9.53276 52.7253 7.5626 16.1037 33.477 7.67722 163.639 -176.237 52.0152 99.28 -77.8628 -21.8389 1.66877 93.8688 -22.4135 40.5329 37.0143 -9.17013 12.6563 -0.0935848 5.28091 -89.1544 16.3072 0.245133 1.66632 4.63521 0.318229 1.65391 -17.8915 -0.266928 1.66298 2.12119 -0.266926 1.66297 38.9062 -54.7311 -166.224 24.2977 38.1802 69.4496 148.94 -11.7928 -67.218 2.63173 -2.33498 -75.8277 -116.353 -63.3071 48.0053 16.9998 -31.9869 22.067 169.825 53.3786 -163.473 54.3558 -15.5078 -32.525 -23.2757 32.9544 -34.5101 -89.9248 4.0414 27.9844 
-331.791 53.9252 370.673 -98.588 -40.0597 -90.2725 153.964 66.6667 118.647 -106.053 24.5382 -9.38272 51.4069 6.13985 15.1043 29.4945 22.2683 165.24 -177.118 51.3579 99.9914 -74.8348 -20.9894 1.4234 92.2004 -21.7173 42.435 36.5033 -8.60261 12.8976 -0.00185555 5.23879 -88.8747 16.3857 0.569026 2.17715 4.71308 0.664272 2.15002 -17.8074 -0.111421 2.2475 2.20522 -0.111418 2.2475 37.3512 -55.996 -167.088 26.4254 38.5 67.8594 150.379 -11.0784 -67.2464 2.9476 -2.62862 -77.2814 -116.317 -62.2244 47.5454 19.7134 -30.9635 22.5805 167.844 54.6612 -162.833 53.7584 -16.2736 -34.2372 -22.2666 33.2009 -37.7223 -90.219 5.5472 26.9743 
-332.878 53.3914 372.169 -98.9634 -39.9389 -90.5084 151.892 67.7328 120.706 -104.667 24.77 -9.18519 50.389 4.68957 14.158 24.4674 37.5436 167.319 -177.847 50.5672 100.562 -71.581 -20.2793 1.16106 90.239 -21.019 44.0693 36.093 -8.15044 13.0879 0.0819159 5.18178 -88.5794 16.4917 0.885746 2.72007 4.81829 1.00457 2.67849 -17.6941 0.0276724 2.86042 2.31857 0.0276793 2.86041 35.3569 -57.3665 -168.346 28.4414 38.6298 66.3754 153.489 -9.67719 -67.0946 3.94391 -3.37067 -78.4749 -116.335 -61.3391 47.1066 22.6815 -29.9806 23.3663 166.511 55.4277 -162.644 53.0587 -16.7463 -35.516 -21.4331 33.4192 -40.8832 -90.4505 6.97271 26.0638 
